<?xml version="1.0" encoding="UTF-8"?>
<svg
  version="1.1"
  xmlns="http://www.w3.org/2000/svg"
  width="1080"
  height="1080"
>
  <path
    d="M0 0 C-0.35711767 2.54199504 -0.57897697 3.68156627 -2.66723633 5.26098633 C-3.38161865 5.61443115 -4.09600098 5.96787598 -4.83203125 6.33203125 C-5.62432129 6.73397705 -6.41661133 7.13592285 -7.23291016 7.55004883 C-8.50980713 8.17496216 -8.50980713 8.17496216 -9.8125 8.8125 C-11.56720599 9.70676583 -13.321115 10.60259723 -15.07421875 11.5 C-15.92677246 11.93183594 -16.77932617 12.36367187 -17.65771484 12.80859375 C-32.93426026 20.57902752 -46.6539225 31.1446251 -59 43 C-59.5048291 43.47373047 -60.0096582 43.94746094 -60.52978516 44.43554688 C-80.06807359 62.82043293 -94.30228679 87.18680106 -95.203125 114.6171875 C-95.64078282 143.89287194 -87.33722255 165.94864597 -67 187 C-66.37222656 187.66773438 -65.74445313 188.33546875 -65.09765625 189.0234375 C-56.2598988 198.21470525 -45.64042125 205.10746587 -35 212 C-34.17387207 212.53963379 -33.34774414 213.07926758 -32.49658203 213.63525391 C-16.66432194 223.96343243 -0.50308541 233.38949777 16.45532227 241.74511719 C22.95361031 244.95018752 29.38301171 248.28441989 35.8125 251.625 C36.96024902 252.22111084 38.10799805 252.81722168 39.29052734 253.43139648 C43.46151805 255.59882304 47.63163831 257.76791917 51.80163574 259.93725586 C67.00188608 267.84423279 82.20313346 275.73087364 97.6015625 283.24609375 C108.75299028 288.71788474 119.58972712 294.61963245 130.36328125 300.80078125 C133.85202279 302.79764621 137.35751842 304.7395759 140.91796875 306.60546875 C161.16878653 317.25671159 180.36039136 330.43358097 198 345 C199.74894403 346.37634291 201.49888564 347.75141947 203.25 349.125 C219.19629759 361.97993134 233.85727911 376.49317311 246 393 C246.70253906 393.91910156 247.40507813 394.83820313 248.12890625 395.78515625 C279.1007342 436.93950298 286.04733752 482.92234892 279 533 C278.89316895 533.78777832 278.78633789 534.57555664 278.67626953 535.38720703 C275.43426083 558.4645596 265.19396278 580.9365734 252 600 C251.51547363 600.71623535 251.03094727 601.4324707 250.53173828 602.17041016 C238.45460983 620.02029897 225.45506716 635.98903608 209 650 C208.07832031 650.81082031 207.15664063 651.62164063 206.20703125 652.45703125 C194.51710878 662.66411186 182.01934067 671.59260316 168.42578125 679.08984375 C165.52296029 680.70840641 162.6857319 682.39931809 159.85839844 684.14526367 C145.18777306 693.16981231 129.81124783 700.92185197 114.0625 707.875 C113.09393066 708.30280762 112.12536133 708.73061523 111.12744141 709.17138672 C105.12000382 711.77370083 99.04671285 714.1444413 92.90917969 716.42167664 C82.93460469 720.12564816 73.0162009 723.97646655 63.0949707 727.82055664 C60.75701662 728.72526359 58.41816039 729.62764296 56.07836914 730.52758789 C-11.95687975 755.71009314 -11.95687975 755.71009314 -59.96630859 807.66992188 C-62.51091664 813.40580736 -64.37183995 819.45039004 -66.21069336 825.44360352 C-66.5175708 826.40709717 -66.82444824 827.37059082 -67.140625 828.36328125 C-67.40391602 829.23251221 -67.66720703 830.10174316 -67.93847656 830.99731445 C-69 833 -69 833 -71.05371094 833.85229492 C-72.01712402 833.92540894 -72.01712402 833.92540894 -73 834 C-74.83708363 832.16291637 -74.2168613 829.34383319 -74.25 826.875 C-74.03190692 803.0059235 -63.44290546 784.29786743 -49 766 C-48.17435547 764.92298828 -48.17435547 764.92298828 -47.33203125 763.82421875 C-26.85576331 738.5954343 11.15391229 722.47302158 40.63549805 711.29321289 C46.55401487 709.01831385 52.40291342 706.57652993 58.25 704.125 C58.90397766 703.85120514 59.55795532 703.57741028 60.23175049 703.2953186 C74.51210397 697.30403723 88.61707208 690.94175438 102.67430115 684.44647217 C106.10555906 682.86283602 109.54664093 681.30890183 113.01171875 679.80078125 C140.56311497 667.6716383 166.05317383 648.44312845 188 628 C188.73863281 627.31550781 189.47726562 626.63101563 190.23828125 625.92578125 C222.31154657 595.10582293 240.80910258 552.56416086 241.9296875 508.41015625 C242.58235565 468.36827062 222.94132734 432.71127353 195.69140625 404.5078125 C187.85080856 396.50216697 179.95805725 388.75843251 171 382 C169.51820459 380.86331329 168.03643635 379.72659115 166.5546875 378.58984375 C145.86698311 362.81885666 124.53295103 348.87027417 101.68554688 336.46191406 C99.02036272 335.01108472 96.36103664 333.55004137 93.703125 332.0859375 C75.98773043 322.34158302 58.24467112 312.60542465 39.73339844 304.44580078 C22.96675878 297.0440405 6.52992114 289.01128977 -9.48681641 280.1027832 C-14.49838665 277.32522497 -19.52450132 274.72453643 -24.75 272.375 C-36.11339202 267.21554183 -47.31546501 261.28859622 -57.39453125 253.8984375 C-60.13236941 251.90355092 -62.92210872 250.00287112 -65.7265625 248.10351562 C-99.3728415 225.26311087 -127.22766594 199.66351088 -136.359375 158.36328125 C-137.15035144 154.21065494 -137.83265178 150.22554267 -138 146 C-138.0515625 144.93007813 -138.103125 143.86015625 -138.15625 142.7578125 C-138.9577408 111.16571688 -126.20022681 80.7389246 -104.73242188 57.81713867 C-99.08179364 51.92809107 -93.0739269 46.44558964 -87 41 C-86.31679688 40.35546875 -85.63359375 39.7109375 -84.9296875 39.046875 C-65.86786831 21.38787367 -26.75048675 -2.16895839 0 0 Z "
    fill="#2563eb"
    transform="translate(449,205)"
  />
  <path
    d="M0 0 C0.0625 2.25 0.0625 2.25 -1 5 C-2.54516602 5.93041992 -2.54516602 5.93041992 -4.62890625 6.79296875 C-5.44560791 7.13537598 -6.26230957 7.4777832 -7.10375977 7.83056641 C-8.05951904 8.21647949 -9.01527832 8.60239258 -10 9 C-11.10077881 9.44907715 -12.20155762 9.8981543 -13.33569336 10.36083984 C-15.85486082 11.38300853 -18.37522392 12.40139203 -20.89819336 13.4140625 C-64.18026711 30.37491594 -64.18026711 30.37491594 -104 54 C-105.35242718 54.93611184 -106.70675363 55.869483 -108.0625 56.80078125 C-115.76458744 62.11937794 -123.12316024 67.60805529 -130.234375 73.69921875 C-132.95158201 75.95972006 -135.74117663 78.02046306 -138.625 80.0625 C-147.1900452 86.21554971 -154.25875805 92.98810345 -160.79296875 101.26171875 C-162.89273884 103.86692022 -165.09227744 106.30509467 -167.375 108.75 C-194.93674375 139.14968944 -209.85839046 179.39743032 -208.15966797 220.3359375 C-206.53918175 247.37377483 -194.57148043 274.59627437 -177 295 C-176.319375 295.80695313 -175.63875 296.61390625 -174.9375 297.4453125 C-172.68682698 300.0284713 -170.36094121 302.51700126 -168 305 C-167.45134277 305.58652344 -166.90268555 306.17304688 -166.33740234 306.77734375 C-156.44719378 317.2944524 -146.03128594 326.0337807 -134 334 C-133.22221191 334.51546387 -132.44442383 335.03092773 -131.64306641 335.56201172 C-121.15084774 342.45393812 -110.37609919 348.74856182 -99.33984375 354.72265625 C-96.97508243 356.01360275 -94.6272641 357.33157756 -92.28125 358.65625 C-68.5967515 371.93747226 -43.87821612 383.36237997 -19.22705078 394.71923828 C-12.02800323 398.03965888 -4.89682587 401.45521884 2.16748047 405.05297852 C5.8867103 406.94641273 9.62005076 408.81064251 13.35546875 410.671875 C21.36991104 414.67400886 29.36301217 418.71677436 37.33666992 422.79956055 C38.82125192 423.55854231 40.30693313 424.31537781 41.79370117 425.07006836 C50.9374928 429.71260936 59.85485917 434.57838075 68.60327148 439.93041992 C71.58129053 441.74488606 74.58024331 443.50327666 77.609375 445.23046875 C117.54316024 468.12031844 155.47286062 500.32550019 168.1394043 546.40087891 C176.82926168 579.14938025 170.09792103 612.12126698 153.5625 641.3125 C150.03767971 647.12687989 146.12096358 652.59624621 142 658 C141.41992188 658.78632812 140.83984375 659.57265625 140.2421875 660.3828125 C130.73910601 672.84789341 119.13694527 683.47312596 106.59521484 692.79736328 C105.13957653 693.89477288 103.71805121 695.03706132 102.30078125 696.18359375 C81.14704389 713.01393953 55.64693116 724.87576071 30 733 C28.96423828 733.32838867 27.92847656 733.65677734 26.86132812 733.99511719 C23.60069213 735.01636933 20.33377734 736.01340469 17.0625 737 C15.52493042 737.47300537 15.52493042 737.47300537 13.95629883 737.95556641 C12.99232178 738.23835449 12.02834473 738.52114258 11.03515625 738.8125 C10.1831665 739.06644531 9.33117676 739.32039062 8.45336914 739.58203125 C5.68620695 740.05345942 3.69699744 739.70867366 1 739 C1 738.01 1 737.02 1 736 C1.62261719 735.74347656 2.24523437 735.48695313 2.88671875 735.22265625 C12.41088532 731.27749939 21.89047282 727.22920916 31.35449219 723.14208984 C33.04705291 722.41139595 34.74034454 721.6823913 36.43457031 720.95556641 C52.84936012 713.90044973 68.22829605 706.50499775 82 695 C83.15215257 694.06356681 84.30450131 693.12737495 85.45703125 692.19140625 C112.37690848 670.03456255 132.74009091 640.21068183 136.7578125 604.953125 C139.16955443 575.54543309 126.1964651 547.3794624 107.5625 525.25 C99.14534169 515.51584164 90.07567941 507.1152789 79.81787109 499.37792969 C78.06929732 498.05252674 76.3406718 496.7043926 74.61328125 495.3515625 C64.35254529 487.4423362 53.23966309 481.09108378 41.98974609 474.70361328 C39.2289925 473.13048421 36.48137721 471.53725789 33.73828125 469.93359375 C15.50175323 459.31056128 -3.22594699 449.61656243 -22.34838867 440.69140625 C-29.76584173 437.19375711 -36.93437833 433.29586623 -44.10913086 429.32861328 C-51.35532043 425.32620298 -58.69026834 421.56380985 -66.12304688 417.92236328 C-69.9602071 416.03672445 -73.77976066 414.11548175 -77.59936523 412.19458008 C-81.39155208 410.29098862 -85.19646276 408.41899589 -89.01953125 406.578125 C-102.60359342 399.98657149 -115.5147183 392.5315575 -128.36865234 384.61669922 C-130.50469659 383.30431427 -132.64750011 382.00642425 -134.80078125 380.72265625 C-164.88645802 362.64066754 -194.23684724 340.62786286 -215 312 C-215.41169434 311.43796875 -215.82338867 310.8759375 -216.24755859 310.296875 C-229.4417335 292.07062468 -239.20349393 271.73935473 -245 250 C-245.31481323 248.82969238 -245.31481323 248.82969238 -245.63598633 247.63574219 C-247.88923482 237.56192327 -247.4415767 227.01585565 -247.4375 216.75 C-247.43790283 215.71843781 -247.43830566 214.68687561 -247.4387207 213.62405396 C-247.40460784 198.50720162 -246.90175514 184.43424091 -242 170 C-241.72124023 169.13874512 -241.44248047 168.27749023 -241.15527344 167.39013672 C-234.24816788 146.43552357 -223.96616837 128.0097216 -210 111 C-208.7934375 109.47826172 -208.7934375 109.47826172 -207.5625 107.92578125 C-202.02231878 100.99066155 -196.0836176 94.45662773 -190 88 C-189.27167969 87.21753906 -188.54335938 86.43507813 -187.79296875 85.62890625 C-182.02810279 79.62873964 -175.60740557 74.59740114 -169.015625 69.55810547 C-166.86616564 67.89654422 -164.74440437 66.20361278 -162.625 64.50390625 C-154.22570563 57.7962497 -145.84194073 51.60117492 -136.44140625 46.36279297 C-134.60317313 45.33669124 -132.77081774 44.30004899 -130.94140625 43.25830078 C-93.53125277 21.95529671 -56.03196863 6.16954056 -13 1 C-12.18595703 0.90138672 -11.37191406 0.80277344 -10.53320312 0.70117188 C-6.96863983 0.28506367 -3.6013102 0 0 0 Z "
    fill="#2563eb"
    transform="translate(477,138)"
  />
  <path
    d="M0 0 C8.37308361 6.88592398 16.90671538 14.31270164 20 25 C15.12264329 25 14.02142752 23.82620766 10.1875 20.9375 C-12.20124355 4.84638293 -41.89426034 -1.63061692 -69.08203125 2.68359375 C-73.46634469 3.53315091 -77.73704821 4.6751375 -82 6 C-82.69416016 6.21430664 -83.38832031 6.42861328 -84.10351562 6.64941406 C-107.48761172 14.12144849 -126.60474233 29.5313819 -138.18359375 51.29296875 C-141.38861834 57.64357126 -143.79775958 64.24681993 -146 71 C-146.34160156 71.98613281 -146.68320312 72.97226562 -147.03515625 73.98828125 C-154.26751407 98.84740883 -147.80487928 126.17084129 -136.25 148.5625 C-127.45759781 163.9721007 -116.15764533 177.2689152 -102 188 C-100.85144531 188.87205078 -100.85144531 188.87205078 -99.6796875 189.76171875 C-59.77663015 218.7759757 -11.25473844 229.10860152 37 233 C37.33 233.99 37.66 234.98 38 236 C33.13508995 238.2540763 28.50783501 239.76001302 23.20703125 240.6640625 C22.47378128 240.79019928 21.74053131 240.91633606 20.98506165 241.04629517 C12.56319738 242.38051266 4.19564788 242.46181222 -4.3125 242.375 C-5.52448563 242.36851944 -5.52448563 242.36851944 -6.76095581 242.36190796 C-19.05615863 242.28498803 -30.96687573 241.70540741 -43 239 C-43.80034668 238.82839355 -44.60069336 238.65678711 -45.42529297 238.47998047 C-79.10606645 231.14324978 -107.90680955 216.57630016 -134.16015625 194.38671875 C-135.79512683 193.0126238 -137.4422808 191.65220276 -139.12109375 190.33203125 C-162.55052395 171.38390578 -177.17935487 137.82321484 -180.56640625 108.37109375 C-183.70100946 74.31353367 -177.70267624 42.24667698 -156.3984375 14.87109375 C-117.2702818 -31.96798515 -47.39864261 -38.19431905 0 0 Z "
    fill="#2563eb"
    transform="translate(411,651)"
  />
  <path
    d="M0 0 C27.58229324 3.75301511 54.8828101 30.58190372 74 49 C74.74217773 49.71349609 75.48435547 50.42699219 76.24902344 51.16210938 C84.64225374 59.27064015 92.66623069 67.14240699 99 77 C99.60972656 77.88816406 100.21945312 78.77632813 100.84765625 79.69140625 C108.76667289 91.51108501 112.40805152 102.14335655 111.87109375 116.4296875 C111.60603967 123.83410151 112.04613311 128.3420302 117 134 C117.50789062 134.58007812 118.01578125 135.16015625 118.5390625 135.7578125 C122.43400042 139.87426347 126.82117832 143.34932636 131.2734375 146.83984375 C134.16693391 149.13225566 136.99010909 151.49570212 139.8125 153.875 C148.60886391 161.22785804 157.72153537 168.12646641 167.0234375 174.828125 C169.85760565 176.89610071 172.65708579 179.00333238 175.45288086 181.12255859 C188.49581181 190.99661408 201.87898084 200.42637634 215.58984375 209.3515625 C223.56732503 214.80779767 223.56732503 214.80779767 225 219 C225.66838753 226.28263915 222.5110086 231.56799381 218 237 C215.77692993 239.35804218 213.49603164 241.62881598 211.16015625 243.875 C209.28447399 245.72015579 207.60255167 247.59245736 205.9375 249.625 C202.64094271 253.53466363 198.9275666 256.73599488 195 260 C194.45585449 260.46180664 193.91170898 260.92361328 193.35107422 261.39941406 C171.68404253 279.76563155 146.62232959 297.53244429 117.01318359 296.17041016 C111.71315111 295.72177777 106.93348506 293.88092402 102 292 C100.35042318 291.38758226 98.70066968 290.77564026 97.05078125 290.1640625 C90.39808148 287.67498602 83.75272098 285.16164421 77.1953125 282.4296875 C69.32114467 279.16217568 61.3585524 276.3792877 53.25 273.75 C52.20811523 273.40839844 51.16623047 273.06679688 50.09277344 272.71484375 C30.4306246 266.4499128 11.63968523 265.87745992 -7.0625 275.25 C-17.65571873 281.43591661 -24.18065869 291.3049256 -27.3125 303.1875 C-28.62734253 310.33280589 -28.68395274 317.75586412 -29 325 C-30.32 325 -31.64 325 -33 325 C-41.11862843 308.71932801 -44.15955362 295.82086831 -38.68457031 277.97460938 C-34.47556833 265.83395031 -26.36175027 257.92183512 -15.125 252.1875 C8.99197552 240.61404102 35.41149627 244.98772047 60 253 C71.70003523 257.24548966 83.13870284 262.18037975 94.42407227 267.4206543 C114.1235325 276.52195789 129.58588675 277.12367494 150 270 C150.9075 269.70222656 151.815 269.40445312 152.75 269.09765625 C164.29554302 264.9769608 175.71860081 256.98504749 184 248 C184.33 247.01 184.66 246.02 185 245 C184.29875 244.773125 183.5975 244.54625 182.875 244.3125 C178.17283225 242.1658582 174.90878372 239.42376116 172.125 235.0625 C170.87360581 231.65592694 170.47591446 229.59372944 171 226 C173.68785207 220.62429586 176.70603124 218.45791407 182 216 C183.32 216 184.64 216 186 216 C186 215.34 186 214.68 186 214 C185.42765625 213.73960937 184.8553125 213.47921875 184.265625 213.2109375 C181.81714988 211.90226976 179.88764049 210.39640138 177.75 208.625 C173.37512182 205.06479855 168.90474623 201.67038248 164.375 198.3125 C154.90471432 191.26369628 145.74103785 183.84611284 136.71484375 176.23828125 C131.19854539 171.59035502 125.61006189 167.20099206 119.73828125 163.01171875 C115.87657728 160.17466091 112.19443849 157.13747433 108.5078125 154.078125 C106.82600072 152.68447412 105.11534166 151.32497009 103.37890625 150 C95.18939691 143.11489527 93.43311458 134.349088 92.125 124.25 C89.36212431 104.80677779 78.53075799 89.41356426 67 74 C66.40703125 73.19304687 65.8140625 72.38609375 65.203125 71.5546875 C56.99325241 60.64728535 47.15528426 50.98844568 37.5012207 41.37084961 C35.79976222 39.67480274 34.10378737 37.97340179 32.40820312 36.27148438 C27.34900193 31.20933586 22.27533786 26.24544809 16.83032227 21.59448242 C13.43922466 18.64033296 10.25428339 15.47872356 7.0625 12.3125 C6.39154297 11.66216797 5.72058594 11.01183594 5.02929688 10.34179688 C4.39185547 9.70951172 3.75441406 9.07722656 3.09765625 8.42578125 C2.52539307 7.86286377 1.95312988 7.29994629 1.36352539 6.7199707 C-0.15780134 4.80094709 -0.68111497 3.41669524 -1 1 C-0.67 0.67 -0.34 0.34 0 0 Z "
    fill="#2563eb"
    transform="translate(628,162)"
  />
  <path
    d="M0 0 C1.24716797 0.02707031 1.24716797 0.02707031 2.51953125 0.0546875 C4.55519074 0.10148427 6.5902509 0.17321702 8.625 0.25 C8.53412109 0.90967773 8.44324219 1.56935547 8.34960938 2.24902344 C2.16045555 48.73115563 3.37139106 96.85472343 26.71289062 138.60009766 C27.73947246 140.45706769 28.70172777 142.33961226 29.625 144.25 C24.81725134 145.83746418 22.17228614 144.52364307 17.75 142.3125 C2.85696103 134.57505569 -3.47705453 119.22903501 -8.42675781 103.89770508 C-11.93509807 92.51767972 -14.49694847 80.86452643 -14.5078125 68.91796875 C-14.50876923 68.24131668 -14.50972595 67.56466461 -14.51071167 66.86750793 C-14.51138769 65.44479275 -14.50957407 64.02207437 -14.50537109 62.59936523 C-14.50003985 60.45354051 -14.50532287 58.30792748 -14.51171875 56.16210938 C-14.51491349 48.81006095 -14.34196998 41.55073348 -13.375 34.25 C-17.72398413 36.58855253 -21.08408283 39.62353017 -24.56640625 43.0703125 C-25.14887115 43.64161896 -25.73133606 44.21292542 -26.33145142 44.80154419 C-28.20834807 46.65129338 -30.07459286 48.51116662 -31.9375 50.375 C-32.57160797 51.0083728 -33.20571594 51.64174561 -33.85903931 52.29431152 C-43.15271606 61.61647611 -51.64533865 70.8705423 -58.375 82.25 C-58.78153809 82.90822754 -59.18807617 83.56645508 -59.60693359 84.24462891 C-65.50101286 93.80377897 -69.9253995 103.56950616 -73.375 114.25 C-73.7153125 115.26835937 -74.055625 116.28671875 -74.40625 117.3359375 C-78.32450657 131.15867596 -78.80847155 149.19506585 -72.375 162.25 C-71.77945313 163.50490234 -71.77945313 163.50490234 -71.171875 164.78515625 C-68.81641181 169.36936467 -66.22882003 172.83661654 -62.375 176.25 C-63.375 177.25 -63.375 177.25 -65.45703125 177.3046875 C-77.63765778 176.5031012 -87.7025834 171.85133122 -96.375 163.25 C-108.27051761 149.47324238 -113.7354515 136.00062128 -112.65185547 117.88330078 C-111.19101177 103.98853878 -105.32892519 91.54028139 -97.375 80.25 C-96.62476563 79.1775 -95.87453125 78.105 -95.1015625 77 C-88.27455211 67.74611216 -80.36656112 59.49729107 -72.375 51.25 C-71.82489258 50.67797852 -71.27478516 50.10595703 -70.70800781 49.51660156 C-64.00074069 42.55983908 -56.98238103 36.22562031 -49.375 30.25 C-47.7497081 28.93786148 -46.12470436 27.62536594 -44.5 26.3125 C-34.9760145 18.72047986 -25.3278152 11.27371242 -15.375 4.25 C-14.47394531 3.52039062 -13.57289063 2.79078125 -12.64453125 2.0390625 C-8.28144292 -0.34838607 -4.87612774 -0.20219987 0 0 Z "
    fill="#2563eb"
    transform="translate(600.375,43.75)"
  />
  <path
    d="M0 0 C0.99 0.33 1.98 0.66 3 1 C3.42092196 7.82965916 1.84716989 14.07910719 0.33203125 20.7109375 C0.05534103 21.95130768 -0.22134918 23.19167786 -0.50642395 24.46963501 C-1.24405383 27.77216784 -1.98771255 31.07321308 -2.73486328 34.37359619 C-4.05551162 40.21304868 -5.36199843 46.05568791 -6.66796875 51.8984375 C-7.09406937 53.80178864 -7.09406937 53.80178864 -7.52877808 55.74359131 C-9.82032071 66.04344721 -11.92595513 76.37373197 -13.95043945 86.72900391 C-14.88775695 91.50534438 -15.9234488 96.25318011 -17 101 C-20.0107512 101.90809013 -21.56343194 102.16631164 -24.54296875 101.03125 C-27.3840037 99.38621942 -30.20573093 97.72356784 -33 96 C-33.93457031 95.44570312 -34.86914062 94.89140625 -35.83203125 94.3203125 C-40.63921305 91.26567575 -43.92212631 88.84987248 -45.59765625 83.28515625 C-47.02173229 75.19695736 -47.31308435 67.2028523 -47.4375 59 C-47.48326172 57.76765625 -47.52902344 56.5353125 -47.57617188 55.265625 C-47.66013072 48.46130833 -47.40768766 43.90757675 -42.75854492 38.74902344 C-42.1782251 38.1718457 -41.59790527 37.59466797 -41 37 C-40.16335815 36.08395996 -40.16335815 36.08395996 -39.30981445 35.14941406 C-37.56241322 33.25939314 -35.7654321 31.43710169 -33.9375 29.625 C-33.29063232 28.98087158 -32.64376465 28.33674316 -31.97729492 27.6730957 C-18.50774831 14.48954068 -18.50774831 14.48954068 -10.76171875 10.98828125 C-8.47037722 9.70289454 -8.08962077 8.35128692 -7 6 C-5.37890625 4.26171875 -5.37890625 4.26171875 -3.5625 2.6875 C-2.96566406 2.15511719 -2.36882813 1.62273438 -1.75390625 1.07421875 C-1.17511719 0.71972656 -0.59632813 0.36523438 0 0 Z "
    fill="#2563eb"
    transform="translate(664,52)"
  />
  <path
    d="M0 0 C0 1.32 0 2.64 0 4 C-2.16015625 5.9296875 -2.16015625 5.9296875 -5.0625 7.875 C-6.07054687 8.57625 -7.07859375 9.2775 -8.1171875 10 C-9.06851563 10.66 -10.01984375 11.32 -11 12 C-29.79331241 26.04014001 -39.59065498 52.36719423 -43 75 C-43.90987891 82.05985773 -44.12743063 89.01259886 -44.0625 96.125 C-44.05798828 97.08148438 -44.05347656 98.03796875 -44.04882812 99.0234375 C-44.03720017 101.34902758 -44.02086102 103.6744776 -44 106 C-45.98 106.495 -45.98 106.495 -48 107 C-58.34148614 89.9695526 -62.78788896 72.32629869 -58.16796875 52.71875 C-54.66758648 41.57372016 -48.90266262 31.59995638 -41 23 C-40.36320312 22.29488281 -39.72640625 21.58976562 -39.0703125 20.86328125 C-29.63810701 10.91969112 -14.280714 -0.3966865 0 0 Z "
    fill="#2563eb"
    transform="translate(498,306)"
  />
  <path
    d="M0 0 C0 1.32 0 2.64 0 4 C-2.484375 5.78125 -2.484375 5.78125 -5.75 7.5 C-9.81730685 9.66137079 -12.79693443 11.71036509 -16 15 C-16.66 15 -17.32 15 -18 15 C-18.495 16.485 -18.495 16.485 -19 18 C-19.66 18 -20.32 18 -21 18 C-21.27199219 18.57878906 -21.54398438 19.15757812 -21.82421875 19.75390625 C-22.99408127 21.98869345 -24.33011195 23.89970535 -25.8125 25.9375 C-35.41570326 40.10693226 -37.14876941 57.15237489 -34.56933594 73.77539062 C-32.82024282 82.15476694 -30.22526836 90.3828052 -26.69921875 98.1875 C-26 100 -26 100 -26 103 C-28.25 103.25 -28.25 103.25 -31 103 C-33.3125 101.125 -33.3125 101.125 -35 99 C-35 98.34 -35 97.68 -35 97 C-35.59039062 96.75894531 -36.18078125 96.51789063 -36.7890625 96.26953125 C-45.18141562 91.45060057 -49.82352258 78.32115692 -52.81640625 69.62890625 C-56.22249489 56.64765934 -53.84751145 43.56841933 -47.4375 31.9375 C-43.38824803 25.64321973 -38.23259029 20.30766333 -33 15 C-32.31808594 14.30519531 -31.63617188 13.61039062 -30.93359375 12.89453125 C-24.16641255 6.49467095 -9.60778913 -3.20259638 0 0 Z "
    fill="#2563eb"
    transform="translate(542,343)"
  />
  <path
    d="M0 0 C-0.12890625 1.84765625 -0.12890625 1.84765625 -1 4 C-3.46484375 5.24609375 -3.46484375 5.24609375 -6.9375 6.4375 C-44.42720043 20.26628339 -80.63032689 44.48467418 -99 81 C-99.8971875 82.7634375 -99.8971875 82.7634375 -100.8125 84.5625 C-101.204375 85.366875 -101.59625 86.17125 -102 87 C-103.32 87 -104.64 87 -106 87 C-103.75126952 65.98842454 -95.21695497 47.63252 -80 33 C-79.18660156 32.19046875 -78.37320312 31.3809375 -77.53515625 30.546875 C-61.45278821 15.22040432 -40.56498817 7.0321551 -19.25 2.25 C-18.26717041 2.02683105 -17.28434082 1.80366211 -16.27172852 1.57373047 C-10.71891196 0.37762339 -5.67881859 -0.24222449 0 0 Z "
    fill="#2563eb"
    transform="translate(527,252)"
  />
  <path
    d="M0 0 C20.10129409 7.53007554 20.10129409 7.53007554 25.72265625 16.39453125 C26.52694037 17.56067377 27.33459108 18.72449749 28.14453125 19.88671875 C39.72265625 36.71636544 39.72265625 36.71636544 39.72265625 43.39453125 C36.10392324 43.92669787 34.817793 43.45795575 31.72265625 41.39453125 C29.14907255 39.17856712 28.20381147 37.18129886 26.91015625 34.08203125 C25.83446048 31.86507445 25.83446048 31.86507445 23.72265625 30.39453125 C20.05826516 30.01113419 16.70320482 29.97539597 13.04174805 30.25073242 C8.05592543 30.60475862 5.05865863 30.23151566 0.72265625 27.39453125 C-1.515625 25.34375 -1.515625 25.34375 -3.58984375 23.08203125 C-13.39074123 13.03813631 -26.31366117 7.39626705 -39.27734375 2.39453125 C-39.27734375 1.07453125 -39.27734375 -0.24546875 -39.27734375 -1.60546875 C-29.31597581 -6.58615272 -10.44469997 -3.10814941 0 0 Z "
    fill="#2563eb"
    transform="translate(665.27734375,264.60546875)"
  />
  <path
    d="M0 0 C-0.234375 1.8359375 -0.234375 1.8359375 -1 4 C-2.828125 5.3515625 -2.828125 5.3515625 -5.25 6.625 C-20.57940122 15.34387147 -35.07883281 27.80519652 -40.41015625 45.21875 C-41.79048438 51.7273171 -42.35447752 58.38529314 -43 65 C-44.98 65.495 -44.98 65.495 -47 66 C-51.06008343 52.0434632 -50.36351525 36.98584121 -43.4453125 24.10546875 C-36.18611728 12.96743316 -24.28041935 5.59267715 -12 1 C-11.32066406 0.74476563 -10.64132812 0.48953125 -9.94140625 0.2265625 C-6.31113008 -0.97572251 -3.66193273 -1.10967658 0 0 Z "
    fill="#2563eb"
    transform="translate(589,391)"
  />
  <path
    d="M0 0 C1.32 0.33 2.64 0.66 4 1 C5.2399667 8.7261853 5.23907655 16.38752655 5.25 24.1875 C5.25233643 24.94278992 5.25467285 25.69807983 5.25708008 26.47625732 C5.27118033 38.54511452 4.44539135 50.15149667 2 62 C0.02 62.495 0.02 62.495 -2 63 C-8.30221707 42.01087705 -9.59315662 20.25763023 0 0 Z "
    fill="#2563eb"
    transform="translate(559,144)"
  />
  <path
    d="M0 0 C4.16913033 1.38971011 4.65635783 3.48441445 6.6875 7.3125 C7.31011719 8.46363281 7.93273437 9.61476563 8.57421875 10.80078125 C10 14 10 14 10 18 C6.38126699 18.53216662 5.09513675 18.0634245 2 16 C-0.45458334 13.82163575 -1.94997583 11.53342823 -3.5625 8.6875 C-4.69021646 6.6309509 -4.69021646 6.6309509 -6 5 C-8.71658257 4.32845316 -8.71658257 4.32845316 -11 5 C-11 4.01 -11 3.02 -11 2 C-6.58937864 0.9742741 -4.07369424 0.96315288 0 3 C0 2.01 0 1.02 0 0 Z "
    fill="#2563eb"
    transform="translate(695,290)"
  />
  <path
    d="M0 0 C0.33 0.66 0.66 1.32 1 2 C0.34 2 -0.32 2 -1 2 C-1.33 3.32 -1.66 4.64 -2 6 C0.475 6.495 0.475 6.495 3 7 C-1.17216001 9.78144001 -5.5841877 10.81175998 -10.375 12.1875 C-11.32117188 12.47302734 -12.26734375 12.75855469 -13.2421875 13.05273438 C-14.16 13.31763672 -15.0778125 13.58253906 -16.0234375 13.85546875 C-16.85794434 14.09934326 -17.69245117 14.34321777 -18.55224609 14.59448242 C-21.31245916 15.05176488 -23.31046798 14.70223003 -26 14 C-26 13.01 -26 12.02 -26 11 C-24.94425781 10.56300781 -24.94425781 10.56300781 -23.8671875 10.1171875 C-15.88556513 6.80366803 -7.93773586 3.41698393 0 0 Z "
    fill="#2563eb"
    transform="translate(504,863)"
  />
  <path
    d="M0 0 C-0.046875 1.8046875 -0.046875 1.8046875 -1 4 C-3.44336423 5.24551982 -5.68651241 6.21257221 -8.25 7.125 C-8.91902344 7.37636719 -9.58804688 7.62773437 -10.27734375 7.88671875 C-12.18118089 8.60112522 -14.09048551 9.30090997 -16 10 C-17.66936533 10.65988001 -19.33736326 11.32334551 -21 12 C-21.33 11.01 -21.66 10.02 -22 9 C-21.360625 8.690625 -20.72125 8.38125 -20.0625 8.0625 C-18.06389179 7.1654837 -18.06389179 7.1654837 -17 6 C-18.32 5.67 -19.64 5.34 -21 5 C-19.66666667 4.33333333 -18.33333333 3.66666667 -17 3 C-16.360625 2.649375 -15.72125 2.29875 -15.0625 1.9375 C-10.14378361 -0.29828018 -5.29719553 -0.08978298 0 0 Z "
    fill="#2563eb"
    transform="translate(527,252)"
  />
  <path
    d="M0 0 C-0.1640625 1.79296875 -0.1640625 1.79296875 -1 4 C-3.3984375 5.73828125 -3.3984375 5.73828125 -6.375 7.3125 C-7.84066406 8.11107422 -7.84066406 8.11107422 -9.3359375 8.92578125 C-12 10 -12 10 -15 9 C-14.67 8.01 -14.34 7.02 -14 6 C-13.34 6 -12.68 6 -12 6 C-12 5.34 -12 4.68 -12 4 C-12.99 3.67 -13.98 3.34 -15 3 C-9.89665983 1.094753 -5.53657294 -0.42589023 0 0 Z "
    fill="#2563eb"
    transform="translate(449,205)"
  />
  <path
    d="M0 0 C0.66 0.33 1.32 0.66 2 1 C1.34 6.61 0.68 12.22 0 18 C-1.32 18.33 -2.64 18.66 -4 19 C-4.41676948 17.23397681 -4.8077738 15.46185699 -5.1875 13.6875 C-5.40792969 12.70136719 -5.62835937 11.71523438 -5.85546875 10.69921875 C-6 8 -6 8 -4.61328125 6.26953125 C-3.81470703 5.64111328 -3.81470703 5.64111328 -3 5 C-2.67 4.34 -2.34 3.68 -2 3 C-1.34 3 -0.68 3 0 3 C0 2.01 0 1.02 0 0 Z "
    fill="#2563eb"
    transform="translate(546,438)"
  />
  <path
    d="M0 0 C0.99 0.33 1.98 0.66 3 1 C4.38671875 3.8359375 4.38671875 3.8359375 5.6875 7.375 C6.12449219 8.53773438 6.56148437 9.70046875 7.01171875 10.8984375 C8 14 8 14 8 17 C6.35 17 4.7 17 3 17 C2.690625 16.21625 2.38125 15.4325 2.0625 14.625 C1.07124962 12.07669872 1.07124962 12.07669872 0 10 C0.66 9.67 1.32 9.34 2 9 C1.855625 8.443125 1.71125 7.88625 1.5625 7.3125 C0.97230872 4.88615805 0.476571 2.45093655 0 0 Z "
    fill="#2563eb"
    transform="translate(508,429)"
  />
  <path
    d="M0 0 C0.33 0 0.66 0 1 0 C0.67 2.31 0.34 4.62 0 7 C1.32 7 2.64 7 4 7 C3.44271087 10.34373475 2.64826111 13.03312999 1 16 C-0.32 16 -1.64 16 -3 16 C-2.40984815 10.49191603 -1.43336231 5.35121931 0 0 Z "
    fill="#2563eb"
    transform="translate(424,323)"
  />
  <path
    d="M0 0 C0.66 1.32 1.32 2.64 2 4 C2.66 4 3.32 4 4 4 C4 3.34 4 2.68 4 2 C4.66 2 5.32 2 6 2 C5.38823529 7.50588235 5.38823529 7.50588235 3.625 9.75 C2.13150894 10.89883928 0.56777954 11.95481364 -1 13 C-1.02686553 11.02090602 -1.04633375 9.04171029 -1.0625 7.0625 C-1.07410156 5.96035156 -1.08570313 4.85820312 -1.09765625 3.72265625 C-1 1 -1 1 0 0 Z "
    fill="#2563eb"
    transform="translate(541,433)"
  />
  <path
    d="M0 0 C2.64 0 5.28 0 8 0 C7.7421875 1.890625 7.7421875 1.890625 7 4 C5.2578125 5.046875 5.2578125 5.046875 3.125 5.75 C2.42632813 5.99234375 1.72765625 6.2346875 1.0078125 6.484375 C-1 7 -1 7 -4 7 C-4 6.34 -4 5.68 -4 5 C-3.01 4.34 -2.02 3.68 -1 3 C-0.67 2.01 -0.34 1.02 0 0 Z "
    fill="#2563eb"
    transform="translate(519,252)"
  />
  <path
    d="M0 0 C0 1.32 0 2.64 0 4 C-6.75 8 -6.75 8 -9 8 C-9 7.34 -9 6.68 -9 6 C-8.34 5.67 -7.68 5.34 -7 5 C-6.67 4.01 -6.34 3.02 -6 2 C-6.66 1.67 -7.32 1.34 -8 1 C-3.375 -1.125 -3.375 -1.125 0 0 Z "
    fill="#2563eb"
    transform="translate(542,343)"
  />
  <path
    d="M0 0 C0.99 0.66 1.98 1.32 3 2 C-4.92 5.96 -4.92 5.96 -13 10 C-13 9.01 -13 8.02 -13 7 C-8.71 4.69 -4.42 2.38 0 0 Z "
    fill="#2563eb"
    transform="translate(447,957)"
  />
  <path
    d="M0 0 C2 2 2 2 2.1953125 4.1640625 C2.17210937 4.97617187 2.14890625 5.78828125 2.125 6.625 C2.10695313 7.44226563 2.08890625 8.25953125 2.0703125 9.1015625 C2.03550781 10.04128906 2.03550781 10.04128906 2 11 C1.01 11.33 0.02 11.66 -1 12 C-1.33 8.7 -1.66 5.4 -2 2 C-1.34 2 -0.68 2 0 2 C0 1.34 0 0.68 0 0 Z "
    fill="#2563eb"
    transform="translate(544,445)"
  />
  <path
    d="M0 0 C0 0.99 0 1.98 0 3 C-2.97 3 -5.94 3 -9 3 C-8.67 2.01 -8.34 1.02 -8 0 C-4.71023192 -1.09658936 -3.28696233 -0.79953138 0 0 Z "
    fill="#2563eb"
    transform="translate(493,871)"
  />
  <path
    d="M0 0 C1.98 0.495 1.98 0.495 4 1 C3.34 3.97 2.68 6.94 2 10 C1.01 10 0.02 10 -1 10 C-0.67 6.7 -0.34 3.4 0 0 Z "
    fill="#2563eb"
    transform="translate(646,139)"
  />
  <path
    d="M0 0 C-0.33 1.98 -0.66 3.96 -1 6 C-2.65 5.67 -4.3 5.34 -6 5 C-6 4.01 -6 3.02 -6 2 C-2.25 0 -2.25 0 0 0 Z "
    fill="#2563eb"
    transform="translate(484,872)"
  />
  <path
    d="M0 0 C0.99 0.99 1.98 1.98 3 3 C1.87926138 3.83905565 0.75325453 4.67107831 -0.375 5.5 C-1.00148438 5.9640625 -1.62796875 6.428125 -2.2734375 6.90625 C-4 8 -4 8 -6 8 C-4.73058503 4.08597051 -3.48832306 2.20927127 0 0 Z "
    fill="#2563eb"
    transform="translate(573,400)"
  />
  <path
    d="M0 0 C0.66 0 1.32 0 2 0 C2 0.99 2 1.98 2 3 C-2.95 4.485 -2.95 4.485 -8 6 C-7.67 5.01 -7.34 4.02 -7 3 C-3.535 2.505 -3.535 2.505 0 2 C0 1.34 0 0.68 0 0 Z "
    fill="#2563eb"
    transform="translate(510,930)"
  />
  <path
    d="M0 0 C0.99 0.33 1.98 0.66 3 1 C2.6875 2.9375 2.6875 2.9375 2 5 C1.01 5.33 0.02 5.66 -1 6 C-1.66 4.68 -2.32 3.36 -3 2 C-2.01 2 -1.02 2 0 2 C0 1.34 0 0.68 0 0 Z "
    fill="#2563eb"
    transform="translate(586,390)"
  />
  <path
    d="M0 0 C0.33 0.99 0.66 1.98 1 3 C-1.46278801 4.231394 -3.2795055 4.07159196 -6 4 C-6 3.01 -6 2.02 -6 1 C-4 0 -4 0 0 0 Z "
    fill="#2563eb"
    transform="translate(690,291)"
  />
  <path
    d="M0 0 C1.32 0.66 2.64 1.32 4 2 C3.34 3.32 2.68 4.64 2 6 C0.68 5.67 -0.64 5.34 -2 5 C-1.34 4.67 -0.68 4.34 0 4 C0 2.68 0 1.36 0 0 Z "
    fill="#2563eb"
    transform="translate(377,1033)"
  />
  <path
    d="M0 0 C-1.28913487 0.67154933 -2.58140204 1.33708859 -3.875 2 C-4.59429687 2.37125 -5.31359375 2.7425 -6.0546875 3.125 C-8 4 -8 4 -10 4 C-10 3.34 -10 2.68 -10 2 C-6.70021068 -0.19985954 -3.76967739 -1.88483869 0 0 Z "
    fill="#2563eb"
    transform="translate(464,952)"
  />
  <path
    d="M0 0 C0 1.32 0 2.64 0 4 C-1.32 4.33 -2.64 4.66 -4 5 C-4 4.34 -4 3.68 -4 3 C-3.34 3 -2.68 3 -2 3 C-2 2.34 -2 1.68 -2 1 C-3.65 1 -5.3 1 -7 1 C-3.375 -1.125 -3.375 -1.125 0 0 Z "
    fill="#2563eb"
    transform="translate(542,343)"
  />
  <path
    d="M0 0 C1.98 0 3.96 0 6 0 C5.67 1.32 5.34 2.64 5 4 C4.01 4 3.02 4 2 4 C2 3.34 2 2.68 2 2 C1.34 2 0.68 2 0 2 C0 1.34 0 0.68 0 0 Z "
    fill="#2563eb"
    transform="translate(521,252)"
  />
  <path
    d="M0 0 C-2.66559313 1.77706209 -5.0280615 2.87548273 -8 4 C-7.625 2.0625 -7.625 2.0625 -7 0 C-4.3333581 -1.33332095 -2.83319697 -0.67102033 0 0 Z "
    fill="#2563eb"
    transform="translate(450,153)"
  />
  <path
    d="M0 0 C0.66 0 1.32 0 2 0 C2.125 2.875 2.125 2.875 2 6 C1.34 6.66 0.68 7.32 0 8 C0 7.01 0 6.02 0 5 C-0.99 4.67 -1.98 4.34 -3 4 C-2.34 4 -1.68 4 -1 4 C-0.67 2.68 -0.34 1.36 0 0 Z "
    fill="#2563eb"
    transform="translate(588,73)"
  />
  <path
    d="M0 0 C0 0.66 0 1.32 0 2 C-3.465 3.485 -3.465 3.485 -7 5 C-7.33 4.01 -7.66 3.02 -8 2 C-4.91190305 0.23537317 -3.76687864 0 0 0 Z "
    fill="#2563eb"
    transform="translate(513,259)"
  />
  <path
    d="M0 0 C0.66 0 1.32 0 2 0 C2.6875 1.8125 2.6875 1.8125 3 4 C1.5625 5.75 1.5625 5.75 0 7 C-1.125 2.25 -1.125 2.25 0 0 Z "
    fill="#2563eb"
    transform="translate(424,331)"
  />
</svg>
